<?xml version="1.0" standalone="no"?>
<!DOCTYPE svg PUBLIC "-//W3C//DTD SVG 20010904//EN"
 "http://www.w3.org/TR/2001/REC-SVG-20010904/DTD/svg10.dtd">
<svg version="1.0" xmlns="http://www.w3.org/2000/svg"
 width="260.000000pt" height="260.000000pt" viewBox="0 0 260.000000 260.000000"
 preserveAspectRatio="xMidYMid meet">
<metadata>
Created by potrace 1.11, written by Peter Selinger 2001-2013
</metadata>
<g transform="translate(0.000000,260.000000) scale(0.100000,-0.100000)"
fill="#000000" stroke="none">
<path d="M715 2068 c-98 -35 -269 -190 -438 -398 -91 -113 -255 -335 -270
-368 -20 -43 5 -36 46 12 62 73 215 225 272 271 28 22 56 46 64 53 32 30 169
117 230 145 96 45 167 44 245 -3 130 -79 298 -279 481 -575 38 -60 71 -114 75
-118 4 -5 31 14 59 42 86 84 152 109 201 74 54 -38 144 -166 226 -321 54 -102
43 -97 144 -68 147 43 257 6 368 -124 110 -129 154 -172 165 -161 12 12 -27
74 -149 236 -97 130 -178 212 -221 224 -39 11 -99 -14 -165 -70 -26 -21 -49
-39 -51 -39 -3 0 -15 24 -27 53 -12 28 -51 111 -86 182 -107 215 -172 290
-241 277 -36 -7 -114 -86 -154 -157 -39 -70 -31 -77 -133 125 -241 479 -437
722 -577 719 -19 0 -47 -5 -64 -11z"/>
</g>
</svg>
